<svg xmlns="http://www.w3.org/2000/svg" viewBox="0 0 400 240" width="400" height="240">
  <rect width="400" height="240" fill="#11151c"/>
  <ellipse cx="205" cy="196" rx="155" ry="13" fill="#000" opacity="0.35"/>
  <!-- body (slightly longer, 24-seat) -->
  <path d="M38 176 L38 100 Q38 84 58 80 L176 62 Q204 58 232 64 L342 90 Q368 98 368 132 L368 176 Z"
        fill="#5b7fb8"/>
  <path d="M38 176 L38 158 L368 158 L368 176 Z" fill="#46618f"/>
  <!-- gold brand stripe -->
  <rect x="38" y="150" width="330" height="7" fill="#E5B53F"/>
  <!-- windows (one extra row) -->
  <rect x="66" y="90" width="52" height="38" rx="6" fill="#22303f"/>
  <rect x="126" y="86" width="52" height="42" rx="6" fill="#22303f"/>
  <rect x="186" y="88" width="52" height="40" rx="6" fill="#22303f"/>
  <rect x="246" y="92" width="40" height="36" rx="6" fill="#22303f"/>
  <path d="M296 96 L334 104 Q356 108 360 128 L312 128 L300 100 Z" fill="#22303f"/>
  <!-- wheels -->
  <circle cx="116" cy="178" r="27" fill="#0b0e13"/>
  <circle cx="116" cy="178" r="12" fill="#3c4757"/>
  <circle cx="312" cy="178" r="27" fill="#0b0e13"/>
  <circle cx="312" cy="178" r="12" fill="#3c4757"/>
  <!-- badge -->
  <text x="205" y="226" text-anchor="middle" font-family="system-ui, sans-serif"
        font-size="15" font-weight="700" fill="#97a3b4">Volkswagen · 24</text>
</svg>
